<svg width="20" height="20" viewBox="0 0 20 20" fill="none" xmlns="http://www.w3.org/2000/svg">
<path d="M17.8146 14.1181C17.7442 14.0332 17.6751 13.9484 17.6073 13.8666C16.6742 12.738 16.1097 12.0569 16.1097 8.8621C16.1097 7.20808 15.714 5.85094 14.9341 4.83308C14.359 4.08114 13.5816 3.51071 12.557 3.08915C12.5438 3.08182 12.532 3.0722 12.5222 3.06074C12.1537 1.82658 11.1451 1 10.0077 1C8.87022 1 7.86212 1.82658 7.49357 3.05946C7.48374 3.0705 7.47213 3.07982 7.45922 3.08703C5.0681 4.07138 3.90605 5.95993 3.90605 8.86083C3.90605 12.0569 3.34241 12.738 2.40853 13.8653C2.34067 13.9471 2.27154 14.0303 2.20114 14.1168C2.01928 14.3361 1.90406 14.6029 1.86911 14.8857C1.83416 15.1684 1.88095 15.4553 2.00393 15.7123C2.2656 16.2636 2.82331 16.6059 3.45989 16.6059H16.5601C17.1938 16.6059 17.7476 16.264 18.0102 15.7152C18.1337 15.4582 18.1809 15.1711 18.1462 14.888C18.1116 14.6049 17.9965 14.3377 17.8146 14.1181ZM10.0077 20C10.6205 19.9995 11.2218 19.8331 11.7478 19.5186C12.2737 19.204 12.7047 18.7529 12.9951 18.2132C13.0088 18.1874 13.0155 18.1584 13.0147 18.1292C13.0139 18.0999 13.0055 18.0714 12.9904 18.0463C12.9753 18.0213 12.954 18.0005 12.9285 17.9862C12.903 17.9718 12.8742 17.9643 12.845 17.9643H7.17125C7.14196 17.9642 7.11313 17.9717 7.08759 17.986C7.06205 18.0004 7.04066 18.0211 7.0255 18.0461C7.01033 18.0712 7.00192 18.0998 7.00108 18.1291C7.00024 18.1583 7.007 18.1873 7.02069 18.2132C7.31101 18.7529 7.74195 19.2039 8.26783 19.5185C8.7937 19.833 9.3949 19.9994 10.0077 20Z" fill="#2D2A26"/>
</svg>
