<svg width="21" height="20" viewBox="0 0 21 20" fill="none" xmlns="http://www.w3.org/2000/svg">
<path d="M10.8481 2.45166C9.83805 2.45166 8.85066 2.75117 8.01081 3.31233C7.17097 3.87349 6.51638 4.67108 6.12982 5.60425C5.74327 6.53742 5.64211 7.56427 5.83913 8.55493C6.03615 9.5456 6.52252 10.4556 7.23671 11.1698C7.95091 11.8841 8.86087 12.3705 9.85152 12.5676C10.8422 12.7647 11.869 12.6637 12.8022 12.2772C13.7354 11.8907 14.5331 11.2362 15.0943 10.3964C15.6555 9.55659 15.9551 8.56923 15.9552 7.55916C15.9538 6.20508 15.4152 4.90686 14.4578 3.94934C13.5004 2.99182 12.2022 2.4532 10.8481 2.45166ZM14.2389 6.68666L12.1973 8.16458C12.192 8.16822 12.188 8.17348 12.186 8.17957C12.184 8.18566 12.184 8.19224 12.186 8.19833L12.961 10.5917C12.963 10.5978 12.963 10.6043 12.9611 10.6104C12.9591 10.6166 12.9553 10.6219 12.9501 10.6257C12.9449 10.6295 12.9387 10.6315 12.9323 10.6316C12.9258 10.6316 12.9196 10.6296 12.9144 10.6258L10.8727 9.14749C10.8675 9.14364 10.8612 9.14155 10.8548 9.14155C10.8483 9.14155 10.842 9.14364 10.8369 9.14749L8.7952 10.625C8.78999 10.6287 8.78372 10.6307 8.77731 10.6307C8.77089 10.6307 8.76464 10.6286 8.75946 10.6248C8.75429 10.6211 8.75044 10.6157 8.74848 10.6096C8.74651 10.6035 8.74653 10.5969 8.74853 10.5908L9.54603 8.19833C9.54801 8.19221 9.54803 8.18563 9.54609 8.17951C9.54415 8.17338 9.54034 8.16802 9.5352 8.16416L7.49353 6.68666C7.48801 6.68274 7.48396 6.6771 7.48201 6.67063C7.48006 6.66415 7.48033 6.65721 7.48276 6.6509C7.4852 6.64459 7.48967 6.63927 7.49547 6.63579C7.50127 6.6323 7.50806 6.63085 7.51478 6.63166H10.0119C10.0182 6.6317 10.0245 6.6297 10.0297 6.62595C10.0348 6.62221 10.0387 6.61691 10.0406 6.61083L10.8273 4.21124C10.8291 4.20505 10.8329 4.19962 10.8381 4.19576C10.8433 4.1919 10.8496 4.18981 10.856 4.18981C10.8625 4.18981 10.8688 4.1919 10.874 4.19576C10.8791 4.19962 10.8829 4.20505 10.8848 4.21124L11.6714 6.61083C11.6733 6.61694 11.6772 6.62228 11.6823 6.62604C11.6875 6.62979 11.6938 6.63177 11.7002 6.63166H14.2231C14.2294 6.63207 14.2353 6.6344 14.2402 6.63832C14.2451 6.64225 14.2486 6.64758 14.2504 6.6536C14.2521 6.65961 14.2519 6.66602 14.2499 6.67193C14.2478 6.67785 14.244 6.68299 14.2389 6.68666Z" fill="#2D2A26"/>
<path d="M10.8481 0.416687C9.43543 0.416605 8.05445 0.835445 6.8798 1.62024C5.70516 2.40504 4.78962 3.52054 4.24897 4.82568C3.70832 6.13082 3.56684 7.56697 3.84242 8.95252C4.11801 10.3381 4.79827 11.6108 5.79719 12.6097C6.79611 13.6086 8.06883 14.2889 9.45437 14.5645C10.8399 14.84 12.2761 14.6986 13.5812 14.1579C14.8864 13.6173 16.0019 12.7017 16.7866 11.5271C17.5714 10.3524 17.9903 8.97146 17.9902 7.55877C17.9902 5.66457 17.2377 3.84796 15.8983 2.50855C14.5589 1.16915 12.7423 0.416687 10.8481 0.416687ZM10.8481 13.5C9.67323 13.5 8.52473 13.1516 7.54785 12.4989C6.57096 11.8462 5.80956 10.9184 5.35993 9.833C4.9103 8.74755 4.79264 7.55316 5.02182 6.40084C5.251 5.24852 5.81672 4.19004 6.64746 3.35924C7.4782 2.52844 8.53665 1.96264 9.68895 1.73338C10.8412 1.50412 12.0357 1.6217 13.1211 2.07125C14.2066 2.52081 15.1344 3.28214 15.7872 4.25898C16.44 5.23582 16.7885 6.3843 16.7885 7.55919C16.7869 9.13421 16.1605 10.6443 15.0468 11.758C13.9332 12.8718 12.4231 13.4983 10.8481 13.5Z" fill="#2D2A26"/>
<path d="M4.68976 17.7104L6.98559 17.5059L7.80643 19.1954L7.99309 19.5834L10.1727 15.5C8.87119 15.3912 7.61692 14.9617 6.52184 14.25L4.68976 17.7104ZM11.5656 15.5L13.7402 19.5834L13.9268 19.1954L14.7489 17.5059L17.0448 17.7104L15.2068 14.2296C14.1163 14.9465 12.8655 15.3829 11.5656 15.5Z" fill="#2D2A26"/>
</svg>
