<svg width="21" height="20" viewBox="0 0 21 20" fill="none" xmlns="http://www.w3.org/2000/svg">
<g clip-path="url(#clip0_1_2801)">
<path d="M18.9635 1.8847C16.4504 -0.628423 12.3614 -0.628384 9.84831 1.88474C8.13171 3.60134 7.53546 6.13107 8.27874 8.42619L1.02007 15.6849C0.96563 15.7393 0.922447 15.8039 0.892988 15.875C0.86353 15.946 0.848374 16.0222 0.848389 16.0992V19.414C0.848389 19.7378 1.11046 19.9999 1.43433 19.9999H4.74909C4.90472 19.9999 5.05351 19.9381 5.16335 19.8282L5.9919 18.9991C6.05436 18.9366 6.10188 18.8608 6.13091 18.7774C6.15994 18.6939 6.16974 18.605 6.15956 18.5173L6.05655 17.6269L7.29022 17.5108C7.42603 17.4981 7.55314 17.4384 7.64958 17.3419C7.74602 17.2455 7.80573 17.1184 7.81839 16.9826L7.93456 15.7489L8.82491 15.8525C8.99026 15.8748 9.15679 15.8193 9.2821 15.7083C9.34377 15.6532 9.39312 15.5858 9.42694 15.5104C9.46076 15.4349 9.47827 15.3532 9.47835 15.2706V14.1796H10.5495C10.7051 14.1796 10.8539 14.1178 10.9638 14.0079L12.4664 12.5252C14.7609 13.269 17.2469 12.7177 18.9635 10.9999C21.4766 8.48685 21.4766 4.39783 18.9635 1.8847ZM17.3059 6.02806C16.6204 6.71357 15.5057 6.71357 14.8202 6.02806C14.1347 5.34255 14.1347 4.22791 14.8202 3.5424C15.5057 2.85689 16.6204 2.85689 17.3059 3.5424C17.9914 4.22791 17.9914 5.34255 17.3059 6.02806Z" fill="#2D2A26"/>
</g>
<defs>
<clipPath id="clip0_1_2801">
<rect width="20" height="20" fill="white" transform="translate(0.848145)"/>
</clipPath>
</defs>
</svg>
