<svg width="21" height="20" viewBox="0 0 21 20" fill="none" xmlns="http://www.w3.org/2000/svg">
<path d="M10.8481 0C7.1722 0 4.18146 2.99074 4.18146 6.66668C4.18146 7.7702 4.45736 8.86434 4.98185 9.8348L10.4836 19.7852C10.5568 19.9178 10.6964 20 10.8481 20C10.9999 20 11.1395 19.9178 11.2127 19.7852L16.7165 9.83152C17.2389 8.86434 17.5148 7.77016 17.5148 6.66664C17.5148 2.99074 14.5241 0 10.8481 0ZM10.8481 10C9.01017 10 7.51482 8.50465 7.51482 6.66668C7.51482 4.82871 9.01017 3.33336 10.8481 3.33336C12.6861 3.33336 14.1815 4.82871 14.1815 6.66668C14.1815 8.50465 12.6861 10 10.8481 10Z" fill="#2D2A26"/>
</svg>
