<svg width="20" height="20" viewBox="0 0 20 20" fill="none" xmlns="http://www.w3.org/2000/svg">
<g clip-path="url(#clip0_1_2871)">
<path d="M18.6906 8.00312C18.678 7.96408 18.6578 7.92792 18.6311 7.89672C18.6045 7.86552 18.5719 7.83989 18.5353 7.82131C18.4987 7.80273 18.4588 7.79155 18.4179 7.78843C18.377 7.78531 18.3359 7.7903 18.2969 7.80312L16.8094 8.27812C16.7383 8.30049 16.6776 8.34757 16.6382 8.41084C16.5988 8.47411 16.5834 8.54939 16.5947 8.62305C16.6061 8.6967 16.6434 8.76387 16.7 8.81238C16.7565 8.86089 16.8286 8.88754 16.9031 8.8875C16.9358 8.88797 16.9685 8.88376 17 8.875L18.4875 8.39687C18.5268 8.38448 18.5632 8.36445 18.5947 8.33791C18.6262 8.31138 18.6521 8.27888 18.671 8.24228C18.6899 8.20568 18.7014 8.16571 18.7047 8.12466C18.7081 8.08362 18.7033 8.04231 18.6906 8.00312ZM17.3781 5.2375C17.3044 5.20026 17.2188 5.19383 17.1403 5.21961C17.0618 5.24539 16.9967 5.30128 16.9594 5.375L16.15 6.94375C16.112 7.01753 16.1048 7.10338 16.13 7.18247C16.1551 7.26156 16.2107 7.32743 16.2844 7.36562C16.3286 7.38908 16.3781 7.40091 16.4281 7.4C16.4854 7.39971 16.5416 7.38385 16.5906 7.35413C16.6395 7.32441 16.6795 7.28193 16.7063 7.23125L17.5156 5.65938C17.5343 5.62265 17.5456 5.5826 17.5487 5.54152C17.5519 5.50044 17.547 5.45913 17.5343 5.41996C17.5215 5.38078 17.5011 5.34451 17.4743 5.3132C17.4475 5.2819 17.4149 5.25617 17.3781 5.2375ZM19.0969 10.5969L17.525 9.7875C17.4517 9.74937 17.3662 9.74195 17.2873 9.76686C17.2085 9.79176 17.1428 9.84696 17.1047 9.92031C17.0666 9.99366 17.0591 10.0792 17.084 10.158C17.109 10.2368 17.1642 10.3025 17.2375 10.3406L18.8094 11.15C18.8536 11.1735 18.9031 11.1853 18.9531 11.1844C19.023 11.1847 19.091 11.1616 19.1461 11.1186C19.2012 11.0755 19.2402 11.0152 19.2568 10.9473C19.2734 10.8795 19.2667 10.8079 19.2377 10.7444C19.2086 10.6808 19.159 10.6288 19.0969 10.5969ZM15.0625 11.1062C15.3725 10.9525 15.6338 10.7158 15.8172 10.4223C16.0005 10.1289 16.0988 9.79026 16.1011 9.44423C16.1034 9.09821 16.0095 8.75834 15.83 8.46251C15.6505 8.16669 15.3924 7.92651 15.0844 7.76875C14.7311 7.58459 14.3276 7.5199 13.9344 7.58437L12.8875 4.31875C12.8743 4.27575 12.8519 4.23616 12.8218 4.20275C12.7917 4.16934 12.7547 4.14292 12.7133 4.12535C12.6719 4.10778 12.6271 4.09948 12.5822 4.10104C12.5373 4.1026 12.4932 4.11398 12.4531 4.13437L11.875 4.41562V3.125C11.8788 2.88114 11.7859 2.6457 11.6167 2.47005C11.4475 2.29441 11.2157 2.19284 10.9719 2.1875H8.4375V1.5625C8.43676 1.31409 8.33775 1.07606 8.16209 0.900407C7.98644 0.724752 7.74841 0.625742 7.5 0.625H1.5625C1.31409 0.625742 1.07606 0.724752 0.900407 0.900407C0.724752 1.07606 0.625742 1.31409 0.625 1.5625V5.3125C0.625742 5.56091 0.724752 5.79894 0.900407 5.97459C1.07606 6.15025 1.31409 6.24926 1.5625 6.25H2.1875V7.1875C2.18706 7.24219 2.20133 7.29599 2.22882 7.34328C2.2563 7.39056 2.296 7.42958 2.34375 7.45625C2.39043 7.48582 2.44476 7.50103 2.5 7.5C2.55472 7.50023 2.60857 7.48623 2.65625 7.45937L4.77188 6.25H5.625C5.62123 6.49386 5.71408 6.7293 5.88328 6.90495C6.05248 7.08059 6.2843 7.18216 6.52812 7.1875H8.08125L4.75625 9.51562V9.51875C4.74984 9.51826 4.7434 9.51933 4.7375 9.52187L2.375 10.2781C2.04996 10.3852 1.75173 10.5609 1.50048 10.7933C1.24924 11.0257 1.05085 11.3093 0.91875 11.625C0.636069 12.2914 0.60607 13.038 0.834375 13.725C0.997287 14.2872 1.3325 14.7841 1.79278 15.1457C2.25306 15.5073 2.81521 15.7154 3.4 15.7406C3.52249 15.7395 3.64472 15.7291 3.76563 15.7094L4.63438 18.4125C4.76077 18.807 5.0387 19.1352 5.40703 19.3247C5.77537 19.5143 6.20393 19.5498 6.59844 19.4234C6.99295 19.297 7.32109 19.0191 7.51068 18.6508C7.70026 18.2824 7.73577 17.8539 7.60938 17.4594L6.74688 14.7719L15.7844 14.6875C15.8335 14.6872 15.8819 14.6753 15.9256 14.6528C15.9693 14.6302 16.007 14.5976 16.0356 14.5577C16.0643 14.5178 16.0831 14.4716 16.0905 14.423C16.0979 14.3744 16.0936 14.3248 16.0781 14.2781L15.0625 11.1062ZM4.6875 5H2.1875C2.10462 5 2.02513 4.96708 1.96653 4.90847C1.90792 4.84987 1.875 4.77038 1.875 4.6875C1.875 4.60462 1.90792 4.52513 1.96653 4.46653C2.02513 4.40792 2.10462 4.375 2.1875 4.375H4.6875C4.77038 4.375 4.84987 4.40792 4.90847 4.46653C4.96708 4.52513 5 4.60462 5 4.6875C5 4.77038 4.96708 4.84987 4.90847 4.90847C4.84987 4.96708 4.77038 5 4.6875 5ZM4.6875 3.75H2.1875C2.10462 3.75 2.02513 3.71708 1.96653 3.65847C1.90792 3.59987 1.875 3.52038 1.875 3.4375C1.875 3.35462 1.90792 3.27513 1.96653 3.21653C2.02513 3.15792 2.10462 3.125 2.1875 3.125H4.6875C4.77038 3.125 4.84987 3.15792 4.90847 3.21653C4.96708 3.27513 5 3.35462 5 3.4375C5 3.52038 4.96708 3.59987 4.90847 3.65847C4.84987 3.71708 4.77038 3.75 4.6875 3.75ZM4.6875 2.5H2.1875C2.10462 2.5 2.02513 2.46708 1.96653 2.40847C1.90792 2.34987 1.875 2.27038 1.875 2.1875C1.875 2.10462 1.90792 2.02513 1.96653 1.96653C2.02513 1.90792 2.10462 1.875 2.1875 1.875H4.6875C4.77038 1.875 4.84987 1.90792 4.90847 1.96653C4.96708 2.02513 5 2.10462 5 2.1875C5 2.27038 4.96708 2.34987 4.90847 2.40847C4.84987 2.46708 4.77038 2.5 4.6875 2.5ZM3.88438 15.0437C2.89375 15.35 1.79375 14.6719 1.42813 13.5344C1.24901 12.9917 1.27119 12.4027 1.49063 11.875C1.58795 11.6408 1.73422 11.4302 1.91963 11.2572C2.10503 11.0842 2.32529 10.9528 2.56563 10.8719L4.63125 10.2125L5.96563 14.3781L3.88438 15.0437ZM11.25 6.25C11.253 6.32793 11.2257 6.40398 11.1738 6.46224C11.122 6.52049 11.0496 6.55642 10.9719 6.5625H6.52812C6.45038 6.55642 6.378 6.52049 6.32615 6.46224C6.27431 6.40398 6.24702 6.32793 6.25 6.25V3.125C6.24702 3.04707 6.27431 2.97102 6.32615 2.91276C6.378 2.85451 6.45038 2.81858 6.52812 2.8125H10.9719C11.0496 2.81858 11.122 2.85451 11.1738 2.91276C11.2257 2.97102 11.253 3.04707 11.25 3.125V6.25ZM14.1531 8.18437C14.3761 8.17187 14.5984 8.21935 14.7969 8.32187C14.994 8.42163 15.161 8.572 15.2809 8.75758C15.4007 8.94315 15.4691 9.15725 15.4789 9.37795C15.4888 9.59864 15.4398 9.81798 15.337 10.0135C15.2341 10.209 15.0812 10.3737 14.8938 10.4906L14.1531 8.18437ZM10.3125 4.6875C10.3132 4.74538 10.2974 4.80226 10.2669 4.85151C10.2365 4.90075 10.1927 4.94033 10.1406 4.96562L8.26563 5.90312C8.22197 5.92511 8.17388 5.93687 8.125 5.9375C8.06652 5.93746 8.0092 5.92123 7.95937 5.89062C7.91432 5.8625 7.87718 5.82334 7.85148 5.77686C7.82578 5.73038 7.81236 5.67811 7.8125 5.625V3.75C7.81222 3.69657 7.82572 3.64396 7.8517 3.59726C7.87767 3.55056 7.91524 3.51135 7.96078 3.48339C8.00632 3.45544 8.05829 3.4397 8.11169 3.43768C8.16509 3.43566 8.2181 3.44744 8.26563 3.47187L10.1406 4.40937C10.1927 4.43467 10.2365 4.47425 10.2669 4.52349C10.2974 4.57274 10.3132 4.62962 10.3125 4.6875Z" fill="#2D2A26"/>
</g>
<defs>
<clipPath id="clip0_1_2871">
<rect width="20" height="20" fill="white"/>
</clipPath>
</defs>
</svg>
