<svg width="20" height="20" viewBox="0 0 20 20" fill="none" xmlns="http://www.w3.org/2000/svg">
<path d="M9.375 15C9.37666 13.76 9.83838 12.5648 10.6707 11.6457C11.5031 10.7266 12.6469 10.1491 13.8806 10.025C13.5654 9.62628 13.1638 9.30436 12.706 9.0835C12.2483 8.86263 11.7464 8.74859 11.2381 8.74998C11.1411 8.74998 11.0454 8.77257 10.9586 8.81596C10.8718 8.85936 10.7963 8.92236 10.7381 8.99998C9.70813 10.3606 6.54375 10.3606 5.51375 8.99998C5.45533 8.92257 5.3798 8.85973 5.29306 8.81636C5.20632 8.77299 5.11073 8.75027 5.01375 8.74998C4.17008 8.74573 3.35569 9.05909 2.73247 9.62778C2.10925 10.1965 1.72282 10.9788 1.65 11.8194L1.25 16.25C1.25 16.913 1.51339 17.5489 1.98223 18.0177C2.45107 18.4866 3.08696 18.75 3.75 18.75H11.0787C10.544 18.2824 10.1153 17.7059 9.82146 17.0592C9.52762 16.4124 9.3754 15.7104 9.375 15Z" fill="#9A3324"/>
<path d="M8.125 1.25C3.125 1.25 3.125 8.75 8.125 8.75C13.125 8.75 13.125 1.25 8.125 1.25ZM14.375 11.25C13.6333 11.25 12.9083 11.4699 12.2916 11.882C11.6749 12.294 11.1943 12.8797 10.9105 13.5649C10.6266 14.2502 10.5524 15.0042 10.6971 15.7316C10.8417 16.459 11.1989 17.1272 11.7233 17.6517C12.2478 18.1761 12.916 18.5333 13.6434 18.6779C14.3708 18.8226 15.1248 18.7484 15.8101 18.4645C16.4953 18.1807 17.081 17.7001 17.493 17.0834C17.9051 16.4667 18.125 15.7417 18.125 15C18.1238 14.0058 17.7284 13.0526 17.0254 12.3496C16.3224 11.6466 15.3692 11.2512 14.375 11.25ZM15.625 15.625H13.125C12.9592 15.625 12.8003 15.5592 12.6831 15.4419C12.5658 15.3247 12.5 15.1658 12.5 15C12.5 14.8342 12.5658 14.6753 12.6831 14.5581C12.8003 14.4408 12.9592 14.375 13.125 14.375H15.625C15.7908 14.375 15.9497 14.4408 16.0669 14.5581C16.1842 14.6753 16.25 14.8342 16.25 15C16.25 15.1658 16.1842 15.3247 16.0669 15.4419C15.9497 15.5592 15.7908 15.625 15.625 15.625Z" fill="#9A3324"/>
</svg>
