<svg width="20" height="20" viewBox="0 0 20 20" fill="none" xmlns="http://www.w3.org/2000/svg">
<path d="M14 0.735291H6.00003C5.61619 0.735524 5.24814 0.888128 4.97675 1.15957C4.70536 1.43102 4.55283 1.7991 4.55267 2.18294V17.8171C4.55283 18.2009 4.7054 18.5691 4.97685 18.8405C5.2483 19.112 5.61643 19.2645 6.00032 19.2647H13.9997C14.3836 19.2645 14.7517 19.112 15.0232 18.8405C15.2947 18.5691 15.4472 18.2009 15.4474 17.8171V2.18294C15.4472 1.79905 15.2947 1.43092 15.0232 1.15947C14.7517 0.888016 14.3839 0.735446 14 0.735291ZM10.0912 2.00911H11.0756C11.2347 2.00911 11.365 2.13647 11.365 2.29882C11.3648 2.37551 11.3342 2.44898 11.28 2.50321C11.2258 2.55743 11.1523 2.588 11.0756 2.58823H10.0912C10.0532 2.58835 10.0155 2.58094 9.98031 2.56644C9.94515 2.55194 9.9132 2.53062 9.8863 2.50372C9.8594 2.47683 9.83809 2.44488 9.82358 2.40971C9.80908 2.37455 9.80167 2.33686 9.80179 2.29882C9.80179 2.13647 9.92914 2.00911 10.0912 2.00911ZM8.92444 2.00911H9.02591C9.18767 2.00911 9.31532 2.13647 9.31532 2.29882C9.31544 2.33686 9.30803 2.37455 9.29353 2.40971C9.27902 2.44488 9.25771 2.47683 9.23081 2.50372C9.20392 2.53062 9.17197 2.55194 9.1368 2.56644C9.10163 2.58094 9.06395 2.58835 9.02591 2.58823H8.92444C8.84775 2.588 8.77428 2.55743 8.72005 2.50321C8.66583 2.44898 8.63526 2.37551 8.63503 2.29882C8.63503 2.13647 8.76532 2.00911 8.92444 2.00911ZM10.4936 17.9965H9.5065C9.42976 17.9963 9.35621 17.9658 9.30192 17.9115C9.24763 17.8573 9.21702 17.7838 9.21679 17.7071C9.21664 17.669 9.22402 17.6313 9.23853 17.5961C9.25304 17.5608 9.27438 17.5289 9.30131 17.502C9.32825 17.475 9.36025 17.4537 9.39547 17.4393C9.43069 17.4248 9.46842 17.4174 9.5065 17.4176H10.4936C10.653 17.4176 10.7833 17.545 10.7833 17.7071C10.783 17.7838 10.7524 17.8573 10.6981 17.9115C10.6438 17.9658 10.5703 17.9963 10.4936 17.9965ZM14.56 16.1435H5.44003V3.85647H14.56V16.1435Z" fill="#2D2A26"/>
<path d="M9.44827 15.5124H10.5518C10.7527 15.5124 10.9153 15.3388 10.9153 15.1244V13.9403C10.9153 13.7262 10.7527 13.5524 10.5518 13.5524H9.44827C9.24739 13.5524 9.08474 13.7259 9.08474 13.9406V15.1244C9.08474 15.3388 9.24739 15.5124 9.44827 15.5124ZM6.62533 12.6403H7.72886C7.92945 12.6403 8.09239 12.4638 8.09239 12.2497V11.0682C8.09239 10.8541 7.92945 10.6803 7.72886 10.6803H6.62533C6.42445 10.6803 6.25916 10.8538 6.25916 11.0685V12.2497C6.25916 12.4638 6.42445 12.6403 6.62533 12.6403ZM12.2712 12.6403H13.3747C13.5756 12.6403 13.7409 12.4638 13.7409 12.2497V11.0682C13.7409 10.8541 13.5756 10.6803 13.3747 10.6803H12.2712C12.0706 10.6803 11.9077 10.8538 11.9077 11.0685V12.2497C11.9077 12.4638 12.0706 12.6403 12.2712 12.6403ZM12.2712 15.5124H13.3747C13.5756 15.5124 13.7409 15.3388 13.7409 15.1244V13.9403C13.7409 13.7262 13.5756 13.5524 13.3747 13.5524H12.2712C12.0706 13.5524 11.9077 13.7259 11.9077 13.9406V15.1244C11.9077 15.3388 12.0706 15.5124 12.2712 15.5124ZM6.62533 15.5124H7.72886C7.92945 15.5124 8.09239 15.3388 8.09239 15.1244V13.9403C8.09239 13.7262 7.92945 13.5524 7.72886 13.5524H6.62533C6.42445 13.5524 6.25916 13.7259 6.25916 13.9406V15.1244C6.25916 15.3388 6.42445 15.5124 6.62533 15.5124ZM9.44827 12.6403H10.5518C10.7527 12.6403 10.9153 12.4638 10.9153 12.2497V11.0682C10.9153 10.8541 10.7527 10.6803 10.5518 10.6803H9.44827C9.24739 10.6803 9.08474 10.8538 9.08474 11.0685V12.2497C9.08474 12.4638 9.24739 12.6403 9.44827 12.6403Z" fill="#2D2A26"/>
</svg>
