<svg width="21" height="20" viewBox="0 0 21 20" fill="none" xmlns="http://www.w3.org/2000/svg">
<path d="M19.5425 8.59377L15.6494 12.3888L16.5688 17.7488C16.5885 17.8637 16.5756 17.9819 16.5316 18.0899C16.4877 18.1979 16.4144 18.2915 16.3201 18.36C16.2257 18.4285 16.1141 18.4693 15.9978 18.4777C15.8814 18.4861 15.7651 18.4618 15.6619 18.4075L10.8481 15.8769L6.03501 18.4069C5.93179 18.4612 5.81545 18.4855 5.69914 18.4771C5.58283 18.4687 5.47119 18.4279 5.37684 18.3594C5.28249 18.2908 5.20919 18.1973 5.16524 18.0893C5.12129 17.9812 5.10844 17.8631 5.12813 17.7481L6.04751 12.3881L2.15376 8.59377C2.07018 8.51234 2.01107 8.40914 1.98311 8.29586C1.95515 8.18257 1.95947 8.06372 1.99556 7.95276C2.03166 7.8418 2.0981 7.74316 2.18736 7.66801C2.27662 7.59285 2.38514 7.54419 2.50063 7.52752L7.88126 6.74627L10.2875 1.87002C10.4981 1.44315 11.1981 1.44315 11.4088 1.87002L13.815 6.74627L19.1956 7.52752C19.3109 7.54462 19.419 7.59353 19.508 7.66874C19.597 7.74394 19.6632 7.84247 19.6992 7.95324C19.7352 8.06402 19.7397 8.18265 19.712 8.2958C19.6843 8.40895 19.6256 8.51214 19.5425 8.59377Z" fill="#2D2A26"/>
</svg>
