<svg width="90" height="87" viewBox="0 0 90 87" fill="none" xmlns="http://www.w3.org/2000/svg">
<g filter="url(#filter0_d_1_483)">
<ellipse cx="47.3265" cy="44.5306" rx="33.6735" ry="32.1429" fill="#F6B318"/>
<path d="M62.1487 27.819L67 38.5973V66.9808H57.2938V38.5973L62.1487 27.819Z" fill="#D9D9D9"/>
<path d="M60.3452 22.7887H34.297C33.8205 22.7887 33.3635 22.978 33.0266 23.3149C32.6896 23.6519 32.5003 24.1089 32.5003 24.5854V27.819H62.1419V24.5854C62.1419 24.1089 61.9526 23.6519 61.6157 23.3149C61.2787 22.978 60.8218 22.7887 60.3452 22.7887Z" fill="#F2F2F2"/>
<path d="M27.653 38.5973V66.9791H57.2911V38.5973L62.1425 27.819H32.5026L27.653 38.5973Z" fill="#FBFBFB"/>
<path d="M33.0497 48.2787C33.6747 46.6352 34.7286 45.1892 36.1019 44.0911C37.4752 42.9931 39.1177 42.2831 40.8584 42.035C42.5992 41.7869 44.3746 42.0098 45.9999 42.6805C47.6253 43.3512 49.0413 44.4452 50.1005 45.8486L52.2885 45.5363C51.0778 43.5868 49.3258 42.0318 47.2463 41.061C45.1669 40.0902 42.8498 39.7457 40.5779 40.0694C38.3059 40.3931 36.1773 41.371 34.4517 42.8839C32.7261 44.3968 31.4781 46.3792 30.86 48.5893L33.0497 48.2787Z" fill="#F6B318"/>
<path d="M49.8558 58.015C48.9476 59.1223 47.8086 60.0179 46.5184 60.6393C45.2282 61.2607 43.8179 61.593 42.386 61.6129C40.9541 61.6327 39.5351 61.3398 38.2282 60.7544C36.9212 60.169 35.7578 59.3054 34.8192 58.2238L32.5593 58.5467C33.7014 60.1809 35.2383 61.4997 37.0269 62.3805C38.8155 63.2613 40.7979 63.6754 42.7896 63.5844C44.7812 63.4933 46.7175 62.9001 48.4183 61.8598C50.1192 60.8194 51.5293 59.3659 52.5175 57.6343L49.8558 58.015Z" fill="#F6B318"/>
<path d="M43.5043 57.2853L43.4517 57.0133C43.408 57.0078 43.3638 57.0078 43.3201 57.0133C43.0815 57.0484 42.9692 57.1466 43.0464 57.659C43.1095 58.1099 43.2394 58.1766 43.5061 58.138C43.6121 58.1219 43.7155 58.0912 43.8131 58.0467L43.8816 58.2713C43.756 58.3237 43.6246 58.3608 43.4903 58.3819C43.0411 58.445 42.8165 58.3292 42.727 57.7116C42.6305 57.0379 42.8516 56.8431 43.2973 56.7817C43.4138 56.7667 43.5317 56.7667 43.6482 56.7817L43.7114 57.2607L43.5043 57.2853Z" fill="#2D2A26"/>
<path d="M44.4642 58.0169L44.6396 57.9818L44.4782 56.8501L44.2922 56.8677L44.2641 56.6659L44.9361 56.5694L44.9642 56.7712L44.7888 56.8028L44.8502 57.2274L45.4467 57.1432L45.3871 56.7185L45.2116 56.7361L45.1835 56.5343L45.8538 56.4396L45.8836 56.6413L45.6994 56.6764L45.8608 57.8081L46.0468 57.7906L46.0749 57.9924L45.4046 58.0871L45.3765 57.8853L45.552 57.8538L45.4853 57.3853L44.887 57.4713L44.9537 57.9397L45.1291 57.9222L45.1572 58.1239L44.4852 58.2205L44.4642 58.0169Z" fill="#2D2A26"/>
<path d="M46.6625 57.6973L46.838 57.6622L46.6765 56.5306L46.4906 56.5481L46.4625 56.3463L47.1485 56.248L47.1766 56.4498L47.0011 56.4849L47.1626 57.6184L47.3486 57.6008L47.3766 57.8026L46.6906 57.9008L46.6625 57.6973Z" fill="#2D2A26"/>
<path d="M48.6954 56.5553L48.6427 56.2834C48.599 56.2779 48.5548 56.2779 48.5112 56.2834C48.2725 56.3185 48.1602 56.4167 48.2374 56.9291C48.3006 57.38 48.4304 57.4466 48.6971 57.408C48.8032 57.392 48.9065 57.3613 49.0042 57.3168L49.0726 57.5414C48.947 57.5937 48.8157 57.6308 48.6813 57.6519C48.2322 57.7151 48.0076 57.5993 47.9181 56.9817C47.8216 56.3079 48.0427 56.1132 48.4883 56.0518C48.6048 56.0368 48.7228 56.0368 48.8392 56.0518L48.9024 56.5308L48.6954 56.5553Z" fill="#2D2A26"/>
<path d="M49.6554 57.2762L49.8308 57.2411L49.6694 56.1094L49.4834 56.127L49.4553 55.9252L50.0922 55.834L50.1203 56.0287L49.9835 56.0533L50.0589 56.5797L50.4554 55.9936L50.3098 56.0077L50.2817 55.8129L50.9186 55.7217L50.9467 55.9235L50.8204 55.948L50.4063 56.5498L51.0081 57.0762L51.1397 57.0622L51.1678 57.2639L50.5063 57.3569L50.4782 57.1639L50.6239 57.1376L50.08 56.6481L50.1607 57.2113L50.2975 57.1955L50.3256 57.3903L49.6887 57.4815L49.6554 57.2762Z" fill="#2D2A26"/>
<path d="M52.4982 56.5061L52.4684 56.378L52.1297 56.4271L52.1946 56.8903L52.6421 56.8272L52.6263 56.6377L52.8421 56.6061L52.9017 57.0184L51.7245 57.1939L51.6963 56.9921L51.8718 56.957L51.7104 55.8236L51.5244 55.8411L51.4964 55.6393L52.6736 55.4639L52.7298 55.8622L52.514 55.8937L52.4771 55.7183L52.0297 55.7814L52.0911 56.2148L52.4298 56.1657V56.0376L52.6245 56.0095L52.6894 56.4727L52.4982 56.5061Z" fill="#2D2A26"/>
<path d="M53.5328 56.9289L53.5048 56.7271L53.6802 56.6921L53.5188 55.5604L53.3328 55.5779L53.3047 55.3761L53.9065 55.2901L54.4733 56.0411C54.5716 56.1734 54.6624 56.311 54.7452 56.4534C54.7066 56.3025 54.6715 56.1376 54.6522 56.0148L54.5662 55.4042L54.3908 55.4218L54.3627 55.2235L54.9786 55.1357L55.0066 55.3375L54.8417 55.3674L55.033 56.7113L54.6206 56.771L54.0522 56.02C53.9539 55.8878 53.8631 55.7501 53.7802 55.6077H53.7714C53.81 55.7586 53.8469 55.9235 53.8644 56.0464L53.9504 56.6552L54.1258 56.6377L54.1539 56.8359L53.5328 56.9289Z" fill="#2D2A26"/>
<path d="M51.6159 47.8173C51.6741 47.8064 51.734 47.8079 51.7917 47.8215C51.8494 47.835 51.9037 47.8605 51.951 47.8963C52.1422 48.0419 52.265 48.37 52.3493 48.963L54.1652 48.5156C54.1286 47.7556 53.7938 47.0407 53.2336 46.5259C52.9904 46.363 52.7166 46.2511 52.4289 46.1971C52.1411 46.1431 51.8454 46.1481 51.5597 46.2119C50.8701 46.2786 50.2305 46.6009 49.7665 47.1155C49.5578 47.3863 49.4091 47.6985 49.3305 48.0313C49.2518 48.3641 49.2449 48.7098 49.3104 49.0455C49.5349 50.6018 50.6193 51.0229 51.5772 51.3931H51.5878C52.2896 51.6563 52.9107 51.8844 53.0055 52.5371C53.0394 52.6921 53.0247 52.8539 52.9634 53.0003C52.932 53.0574 52.8868 53.1058 52.8319 53.141C52.7771 53.1763 52.7143 53.1973 52.6493 53.2021C52.1492 53.274 51.8896 52.9371 51.7352 52.0019L49.8578 52.4844C49.842 52.4885 49.8252 52.4867 49.8106 52.4793C49.7961 52.4718 49.7848 52.4593 49.7788 52.4441L47.7576 47.0786L45.2521 47.4401L44.8222 54.5285C44.8212 54.5428 44.8156 54.5564 44.8062 54.5673C44.7969 54.5781 44.7843 54.5857 44.7703 54.5889C44.7564 54.592 44.7417 54.5906 44.7286 54.5848C44.7155 54.5789 44.7046 54.569 44.6976 54.5566L43.2273 51.7651C43.2219 51.7503 43.2219 51.7342 43.2273 51.7195L44.3063 46.5628L42.171 46.8628L41.6552 50.4509C41.6531 50.465 41.6465 50.4781 41.6364 50.4882C41.6263 50.4983 41.6132 50.5049 41.599 50.507H41.5412C41.5269 50.5091 41.5123 50.5064 41.4996 50.4995C41.487 50.4925 41.4769 50.4816 41.471 50.4685L40.3796 48.1138L29.582 49.6403L29.8207 51.2983L31.1875 51.1036C31.2045 51.1011 31.2217 51.1054 31.2355 51.1156C31.2494 51.1258 31.2586 51.141 31.2612 51.158L32.1735 57.6499L34.0509 57.3867L33.1385 50.8948C33.136 50.8775 33.1404 50.8598 33.1508 50.8457C33.1559 50.8385 33.1624 50.8324 33.17 50.8279C33.1775 50.8233 33.1859 50.8204 33.1947 50.8194L34.3667 50.6544C34.3753 50.6532 34.384 50.6537 34.3923 50.6558C34.4007 50.658 34.4085 50.6618 34.4154 50.6671C34.4222 50.6723 34.428 50.6788 34.4323 50.6863C34.4366 50.6937 34.4394 50.702 34.4404 50.7106L35.3528 57.2025L39.2935 56.648H39.3023C39.3122 56.6478 39.3219 56.6498 39.3309 56.6539C39.3399 56.658 39.3478 56.6641 39.354 56.6717C39.3603 56.6793 39.3647 56.6882 39.367 56.6978C39.3693 56.7074 39.3694 56.7174 39.3672 56.727L38.9707 58.7851L41.3236 58.471L41.8763 53.5407C41.8783 53.5263 41.8848 53.513 41.8949 53.5026C41.905 53.4922 41.9181 53.4852 41.9324 53.4828H41.978C41.9923 53.4807 42.0069 53.4834 42.0196 53.4904C42.0322 53.4973 42.0423 53.5082 42.0482 53.5214L43.1869 56.1111L46.6961 55.6163L46.7241 53.9372C46.7247 53.9218 46.7307 53.9071 46.7409 53.8956C46.7511 53.8841 46.7651 53.8765 46.7803 53.8741L48.1383 53.6793C48.1538 53.6769 48.1696 53.6803 48.1828 53.6887C48.196 53.697 48.2058 53.7099 48.2102 53.7249L48.7121 55.3356L50.7438 55.0479L50.4806 54.3092C50.4771 54.2971 50.477 54.2843 50.4804 54.2722C50.4838 54.2601 50.4906 54.2492 50.4999 54.2408C50.5116 54.2312 50.5261 54.226 50.5412 54.226C50.5562 54.226 50.5708 54.2312 50.5824 54.2408C50.8762 54.4952 51.2272 54.6748 51.6054 54.7643C51.9836 54.8539 52.3779 54.8506 52.7546 54.7548C53.0958 54.7361 53.4286 54.6413 53.7285 54.4776C54.0285 54.3138 54.288 54.0851 54.4883 53.8081C54.6886 53.5312 54.8245 53.213 54.886 52.8769C54.9476 52.5407 54.9333 52.195 54.8442 51.8651C54.6267 50.3526 53.4406 49.8807 52.5019 49.4999L52.3738 49.449C51.7369 49.1753 51.3211 48.9525 51.2316 48.3805C51.2084 48.2568 51.2275 48.1288 51.286 48.0173C51.3218 47.9608 51.3702 47.9133 51.4274 47.8786C51.4847 47.8439 51.5492 47.8229 51.6159 47.8173ZM40.334 52.2177L39.7778 54.8145C39.7748 54.8274 39.7681 54.8392 39.7584 54.8482C39.7487 54.8573 39.7365 54.8633 39.7234 54.8654L37.0389 55.2409H37.0302C37.0156 55.2405 37.0015 55.2356 36.9898 55.2268C36.9827 55.2217 36.9767 55.2151 36.9721 55.2076C36.9676 55.2 36.9647 55.1917 36.9635 55.183L36.7442 53.6144C36.7427 53.6058 36.7431 53.597 36.7452 53.5885C36.7473 53.5801 36.7511 53.5722 36.7565 53.5653C36.7616 53.5581 36.7681 53.5521 36.7757 53.5476C36.7832 53.5431 36.7916 53.5401 36.8003 53.5389L38.6847 53.267L38.4531 51.6528L36.574 51.923C36.5654 51.9244 36.5566 51.9241 36.5481 51.922C36.5397 51.9199 36.5318 51.916 36.5249 51.9107C36.5177 51.9055 36.5117 51.899 36.5072 51.8915C36.5027 51.8839 36.4997 51.8755 36.4985 51.8668L36.3003 50.4632C36.2988 50.4546 36.2992 50.4458 36.3013 50.4373C36.3034 50.4289 36.3072 50.4209 36.3125 50.4141C36.3177 50.4069 36.3242 50.4009 36.3318 50.3964C36.3393 50.3919 36.3477 50.3889 36.3564 50.3877L39.0532 50.0087C39.0664 50.0068 39.0798 50.0089 39.0918 50.0149C39.1037 50.0209 39.1135 50.0303 39.1198 50.0421L40.327 52.1704C40.3344 52.185 40.338 52.2018 40.334 52.2177ZM47.6646 52.102C47.6595 52.1099 47.6528 52.1166 47.645 52.1217C47.6371 52.1269 47.6282 52.1303 47.619 52.1318L46.8101 52.2476H46.8013C46.7859 52.2475 46.7709 52.2419 46.7592 52.2318C46.7522 52.2256 46.7465 52.2181 46.7426 52.2096C46.7387 52.2012 46.7366 52.192 46.7364 52.1826L46.7154 49.3754C46.7156 49.3597 46.7213 49.3445 46.7316 49.3327C46.7419 49.3208 46.756 49.3129 46.7715 49.3104L46.8399 49.3017C46.8559 49.2993 46.8721 49.3028 46.8856 49.3115C46.8992 49.3202 46.9091 49.3336 46.9136 49.349L47.6769 52.0581C47.6776 52.0736 47.6733 52.089 47.6646 52.102Z" fill="#2D2A26"/>
<path d="M54.1155 46.2926L53.9891 46.3101L54.0593 46.7962L53.9418 46.8137L53.8716 46.3277L53.7453 46.3452L53.7312 46.2487L54.1032 46.1943L54.1155 46.2926Z" fill="#2D2A26"/>
<path d="M54.3281 46.1627L54.4702 46.5609L54.4948 46.1381L54.6702 46.1135L54.7544 46.696L54.6474 46.7118L54.5789 46.2486L54.5421 46.7276L54.4509 46.7417L54.2755 46.2925L54.3439 46.7557L54.2368 46.7715L54.1526 46.189L54.3281 46.1627Z" fill="#2D2A26"/>
<path d="M41.877 43.3311L38.8627 46.2928L40.4804 46.0576L41.2348 47.5087L41.877 43.3311Z" fill="#F6B318"/>
<path d="M40.5546 44.3767L39.2668 43.7188L39.9282 44.9926L40.5546 44.3767Z" fill="#F6B318"/>
<path d="M41.8041 45.0173L41.6707 45.8946L43.0972 45.6876L41.8041 45.0173Z" fill="#F6B318"/>
<ellipse cx="24.0303" cy="22.5408" rx="15.0303" ry="14.5408" fill="white"/>
<path d="M18.1868 19.046L17.8088 17.48C18.6968 17.12 19.5968 16.556 20.5088 15.788H21.9488V29H20.0408V18.056C19.8608 18.176 19.6088 18.332 19.2848 18.524C18.9608 18.704 18.5948 18.878 18.1868 19.046ZM25.94 27.29H29.558V29H23.906C23.906 28.904 23.9 28.802 23.888 28.694C23.888 28.574 23.888 28.454 23.888 28.334C23.864 27.878 23.9 27.458 23.996 27.074C24.068 26.426 24.242 25.826 24.518 25.274C24.806 24.722 25.136 24.188 25.508 23.672C25.88 23.156 26.246 22.64 26.606 22.124C26.966 21.596 27.266 21.056 27.506 20.504C27.746 19.94 27.866 19.328 27.866 18.668C27.866 18.14 27.77 17.762 27.578 17.534C27.386 17.306 27.122 17.192 26.786 17.192C26.27 17.192 25.94 17.414 25.796 17.858C25.652 18.302 25.634 19.022 25.742 20.018L23.978 20.144C23.87 19.316 23.876 18.554 23.996 17.858C24.116 17.162 24.404 16.604 24.86 16.184C25.316 15.764 25.982 15.554 26.858 15.554C27.83 15.554 28.562 15.824 29.054 16.364C29.546 16.892 29.792 17.666 29.792 18.686C29.792 19.454 29.66 20.162 29.396 20.81C29.144 21.458 28.826 22.064 28.442 22.628C28.058 23.192 27.674 23.732 27.29 24.248C26.906 24.752 26.582 25.256 26.318 25.76C26.066 26.252 25.94 26.762 25.94 27.29Z" fill="#2D2A26"/>
</g>
<defs>
<filter id="filter0_d_1_483" x="0.274277" y="0.243802" width="89.7404" height="87.4514" filterUnits="userSpaceOnUse" color-interpolation-filters="sRGB">
<feFlood flood-opacity="0" result="BackgroundImageFix"/>
<feColorMatrix in="SourceAlpha" type="matrix" values="0 0 0 0 0 0 0 0 0 0 0 0 0 0 0 0 0 0 127 0" result="hardAlpha"/>
<feOffset dy="0.969525"/>
<feGaussianBlur stdDeviation="4.36286"/>
<feComposite in2="hardAlpha" operator="out"/>
<feColorMatrix type="matrix" values="0 0 0 0 0 0 0 0 0 0 0 0 0 0 0 0 0 0 0.13 0"/>
<feBlend mode="normal" in2="BackgroundImageFix" result="effect1_dropShadow_1_483"/>
<feBlend mode="normal" in="SourceGraphic" in2="effect1_dropShadow_1_483" result="shape"/>
</filter>
</defs>
</svg>
