<svg width="33" height="33" viewBox="0 0 33 33" fill="none" xmlns="http://www.w3.org/2000/svg">
<path d="M32.9999 12.8966H0V6.25864C1.70905e-05 6.10774 0.0599697 5.96303 0.166673 5.85632C0.273375 5.74962 0.418091 5.68967 0.568991 5.68965H32.431C32.5819 5.68967 32.7266 5.74962 32.8333 5.85632C32.94 5.96303 33 6.10774 33 6.25864L32.9999 12.8966Z" fill="#FF4B55"/>
<path d="M32.4309 27.3103H0.568991C0.41809 27.3103 0.273375 27.2504 0.166672 27.1437C0.0599697 27.037 1.70905e-05 26.8923 0 26.7414L0 20.1035H32.9999V26.7414C32.9999 26.8923 32.94 27.037 32.8333 27.1437C32.7266 27.2504 32.5818 27.3103 32.4309 27.3103Z" fill="#464655"/>
<path d="M0 12.8965H32.9999V20.103H0V12.8965Z" fill="#F5F5F5"/>
<path d="M18.3166 15.3766C18.3166 15.0945 18.0402 14.8952 17.7726 14.9845L17.2696 15.1521L17.1475 14.4145C17.1127 14.2021 17.0034 14.009 16.8392 13.8698C16.6749 13.7307 16.4664 13.6546 16.2512 13.6553H15.7807L15.2887 14.2609H15.9403L15.7579 15.1614L15.2273 14.9845C14.9596 14.8953 14.6832 15.0946 14.6832 15.3767V18.4366L15.4156 17.7042L15.0705 18.7394H14.6833V19.345H18.3167V18.7394H17.9295L17.5844 17.7042L18.3168 18.4366V15.3766H18.3166ZM16.1972 18.7393H15.7091L16.0447 17.8428L16.1972 18.0375V18.7393ZM16.8027 18.7393V18.0375L16.9552 17.8428L17.2909 18.7393H16.8027ZM16.5 17.6417C16.5 17.6417 15.5632 17.0077 15.6011 15.825C15.6011 15.825 16.1783 15.7304 16.5 15.2194C16.8216 15.7303 17.3989 15.825 17.3989 15.825C17.4367 17.0078 16.5 17.6417 16.5 17.6417Z" fill="#F0C727"/>
</svg>
