<svg width="82" height="82" viewBox="0 0 82 82" fill="none" xmlns="http://www.w3.org/2000/svg">
<circle cx="41" cy="41" r="41" fill="#F6B318" fill-opacity="0.07"/>
<g clip-path="url(#clip0_1_2732)">
<path d="M39.5376 13.5641H42.7709V20.1383H39.5376V13.5641ZM39.5376 62.1703H42.7709V68.7445H39.5376V62.1703ZM22.8646 20.5787L27.4366 25.1507L25.1506 27.4366L20.5786 22.8647L22.8646 20.5787Z" fill="#D9D9D9"/>
<path d="M57.1579 54.871L61.7299 59.443L59.444 61.729L54.8719 57.157L57.1579 54.871Z" fill="#757575"/>
<path d="M13.564 39.5377H20.1383V42.7709H13.564V39.5377Z" fill="#D9D9D9"/>
<path d="M62.1702 39.5377H68.7445V42.7709H62.1702V39.5377Z" fill="#757575"/>
<path d="M25.151 54.8715L27.4369 57.1575L22.865 61.7295L20.579 59.4436L25.151 54.8715Z" fill="#D9D9D9"/>
<path d="M59.4436 20.5782L61.7295 22.8642L57.1575 27.4362L54.8716 25.1502L59.4436 20.5782Z" fill="#757575"/>
<path d="M41.1542 56.0115L40.2764 55.4449C29.7037 48.6155 24.9881 42.8181 24.9881 36.6471C24.9881 31.0159 28.8936 26.6047 33.8795 26.6047C37.3543 26.6047 39.7742 28.2816 41.1542 29.6186C42.5343 28.2816 44.9542 26.6047 48.429 26.6047C53.4149 26.6047 57.3204 31.0159 57.3204 36.6471C57.3204 42.8184 52.6048 48.6155 42.0321 55.4449L41.1542 56.0115Z" fill="#F6B318" fill-opacity="0.2"/>
<path d="M41.1542 13.5641H42.7709V20.1383H41.1542V13.5641Z" fill="#757575"/>
<path d="M41.1542 62.1703H42.7709V68.7445H41.1542V62.1703Z" fill="#757575"/>
<path d="M42.0321 55.4449C52.6048 48.6155 57.3204 42.8181 57.3204 36.6471C57.3204 31.0159 53.4149 26.6047 48.429 26.6047C44.9541 26.6047 42.5343 28.2816 41.1542 29.6186V56.0115L42.0321 55.4449Z" fill="#F6B318"/>
</g>
<defs>
<clipPath id="clip0_1_2732">
<rect width="55.1805" height="55.1805" fill="white" transform="translate(13.564 13.5641)"/>
</clipPath>
</defs>
</svg>
