<svg width="24" height="24" viewBox="0 0 24 24" fill="none" xmlns="http://www.w3.org/2000/svg">
<path d="M10.56 1.92V8.64C10.56 9.14921 10.3577 9.63757 9.99764 9.99764C9.63757 10.3577 9.14922 10.56 8.64 10.56H1.92C1.41078 10.56 0.922425 10.3577 0.562355 9.99764C0.202285 9.63757 0 9.14921 0 8.64V1.92C0 1.41078 0.202285 0.922425 0.562355 0.562355C0.922425 0.202285 1.41078 0 1.92 0H8.64C9.14922 0 9.63757 0.202285 9.99764 0.562355C10.3577 0.922425 10.56 1.41078 10.56 1.92ZM22.08 0H15.36C14.8508 0 14.3624 0.202285 14.0024 0.562355C13.6423 0.922425 13.44 1.41078 13.44 1.92V8.64C13.44 9.14921 13.6423 9.63757 14.0024 9.99764C14.3624 10.3577 14.8508 10.56 15.36 10.56H22.08C22.5892 10.56 23.0776 10.3577 23.4376 9.99764C23.7977 9.63757 24 9.14921 24 8.64V1.92C24 1.41078 23.7977 0.922425 23.4376 0.562355C23.0776 0.202285 22.5892 0 22.08 0ZM8.64 13.44H1.92C1.41078 13.44 0.922425 13.6423 0.562355 14.0024C0.202285 14.3624 0 14.8508 0 15.36V22.08C0 22.5892 0.202285 23.0776 0.562355 23.4376C0.922425 23.7977 1.41078 24 1.92 24H8.64C9.14922 24 9.63757 23.7977 9.99764 23.4376C10.3577 23.0776 10.56 22.5892 10.56 22.08V15.36C10.56 14.8508 10.3577 14.3624 9.99764 14.0024C9.63757 13.6423 9.14922 13.44 8.64 13.44ZM18.72 13.44C17.6757 13.44 16.6549 13.7497 15.7866 14.3298C14.9183 14.91 14.2415 15.7346 13.8419 16.6994C13.4423 17.6642 13.3377 18.7259 13.5415 19.7501C13.7452 20.7743 14.2481 21.7151 14.9865 22.4535C15.7249 23.1919 16.6657 23.6948 17.6899 23.8985C18.7141 24.1023 19.7758 23.9977 20.7406 23.5981C21.7054 23.1985 22.53 22.5217 23.1102 21.6534C23.6903 20.7851 24 19.7643 24 18.72C24 17.3197 23.4437 15.9767 22.4535 14.9865C21.4633 13.9963 20.1203 13.44 18.72 13.44Z" fill="#2D2A26"/>
</svg>
