<svg width="24" height="24" viewBox="0 0 24 24" fill="none" xmlns="http://www.w3.org/2000/svg">
<g clip-path="url(#clip0_1_522)">
<path d="M23.1216 14.1213C21.95 15.2929 20.0505 15.2929 18.8789 14.1213C17.7074 12.9497 17.7074 11.0502 18.8789 9.87868C20.0505 8.70711 21.95 8.70711 23.1216 9.87868C24.2931 11.0502 24.2931 12.9497 23.1216 14.1213Z" fill="#2D2A26"/>
<path d="M14.1213 14.1213C12.9497 15.2929 11.0502 15.2929 9.87866 14.1213C8.70709 12.9497 8.70709 11.0502 9.87866 9.87868C11.0502 8.70711 12.9497 8.70711 14.1213 9.87868C15.2929 11.0502 15.2929 12.9497 14.1213 14.1213Z" fill="#2D2A26"/>
<path d="M5.12135 14.1213C3.94979 15.2929 2.05029 15.2929 0.878718 14.1213C-0.29285 12.9497 -0.29285 11.0502 0.878718 9.87868C2.05029 8.70711 3.94979 8.70711 5.12135 9.87868C6.29292 11.0502 6.29292 12.9497 5.12135 14.1213Z" fill="#2D2A26"/>
</g>
<defs>
<clipPath id="clip0_1_522">
<rect width="24" height="24" fill="white" transform="translate(24) rotate(90)"/>
</clipPath>
</defs>
</svg>
