<svg width="82" height="82" viewBox="0 0 82 82" fill="none" xmlns="http://www.w3.org/2000/svg">
<circle cx="41" cy="41" r="41" fill="#F6B318" fill-opacity="0.07"/>
<path d="M59.2885 19.6693L65.3535 33.1439V68.6281H53.2191V33.1439L59.2885 19.6693Z" fill="#D9D9D9"/>
<path d="M57.0339 13.3806H24.4693C23.8736 13.3806 23.3023 13.6173 22.881 14.0385C22.4598 14.4597 22.2231 15.031 22.2231 15.6268V19.6694H59.2801V15.6268C59.2801 15.031 59.0434 14.4597 58.6222 14.0385C58.201 13.6173 57.6297 13.3806 57.0339 13.3806Z" fill="#F2F2F2"/>
<path d="M16.1632 33.1439V68.626H53.2158V33.1439L59.2808 19.6693H22.226L16.1632 33.1439Z" fill="#FBFBFB"/>
<path d="M22.91 45.2472C23.6913 43.1925 25.0089 41.3848 26.7258 40.012C28.4426 38.6392 30.496 37.7516 32.6722 37.4415C34.8484 37.1313 37.068 37.41 39.1 38.2485C41.132 39.087 42.9021 40.4546 44.2264 42.2092L46.9617 41.8187C45.4481 39.3815 43.2578 37.4375 40.6581 36.2238C38.0585 35.0102 35.1618 34.5795 32.3215 34.9841C29.4811 35.3888 26.82 36.6114 24.6627 38.5027C22.5054 40.3941 20.9452 42.8724 20.1725 45.6354L22.91 45.2472Z" fill="#F6B318"/>
<path d="M43.9206 57.419C42.7852 58.8032 41.3613 59.9228 39.7483 60.6997C38.1353 61.4766 36.3722 61.892 34.5821 61.9169C32.7919 61.9417 31.018 61.5754 29.384 60.8436C27.7501 60.1118 26.2957 59.0321 25.1223 57.68L22.2971 58.0836C23.7249 60.1266 25.6462 61.7754 27.8823 62.8765C30.1184 63.9777 32.5966 64.4954 35.0866 64.3816C37.5765 64.2677 39.9972 63.5261 42.1235 62.2255C44.2498 60.925 46.0126 59.1078 47.2481 56.943L43.9206 57.419Z" fill="#F6B318"/>
<path d="M35.98 56.5069L35.9142 56.1669C35.8595 56.16 35.8043 56.16 35.7497 56.1669C35.4513 56.2107 35.3109 56.3336 35.4075 56.9741C35.4864 57.5378 35.6488 57.6211 35.9822 57.5729C36.1148 57.5528 36.244 57.5144 36.366 57.4588L36.4516 57.7396C36.2946 57.805 36.1304 57.8514 35.9624 57.8778C35.4009 57.9568 35.1201 57.812 35.0083 57.0399C34.8876 56.1976 35.164 55.9541 35.7211 55.8773C35.8668 55.8586 36.0142 55.8586 36.1598 55.8773L36.2388 56.4761L35.98 56.5069Z" fill="#2D2A26"/>
<path d="M37.18 57.4216L37.3994 57.3777L37.1976 55.9629L36.9651 55.9848L36.93 55.7326L37.7701 55.6119L37.8052 55.8642L37.5858 55.9037L37.6626 56.4345L38.4084 56.3292L38.3338 55.7984L38.1145 55.8203L38.0794 55.5681L38.9173 55.4496L38.9546 55.7018L38.7243 55.7457L38.9261 57.1605L39.1586 57.1386L39.1937 57.3908L38.3558 57.5093L38.3207 57.257L38.54 57.2176L38.4567 56.6319L37.7087 56.7394L37.792 57.325L38.0114 57.3031L38.0465 57.5554L37.2064 57.676L37.18 57.4216Z" fill="#2D2A26"/>
<path d="M39.9283 57.022L40.1477 56.9781L39.9459 55.5633L39.7134 55.5852L39.6783 55.333L40.536 55.2101L40.571 55.4624L40.3517 55.5063L40.5535 56.9233L40.786 56.9014L40.8211 57.1536L39.9634 57.2764L39.9283 57.022Z" fill="#2D2A26"/>
<path d="M42.4698 55.5943L42.404 55.2544C42.3494 55.2475 42.2941 55.2475 42.2395 55.2544C41.9412 55.2982 41.8008 55.4211 41.8973 56.0616C41.9762 56.6253 42.1386 56.7087 42.472 56.6604C42.6046 56.6403 42.7337 56.6019 42.8558 56.5463L42.9414 56.8271C42.7844 56.8925 42.6202 56.9389 42.4522 56.9653C41.8907 57.0442 41.6099 56.8995 41.4981 56.1274C41.3774 55.2851 41.6538 55.0416 42.211 54.9648C42.3566 54.9461 42.504 54.9461 42.6496 54.9648L42.7286 55.5637L42.4698 55.5943Z" fill="#2D2A26"/>
<path d="M43.6699 56.4955L43.8893 56.4516L43.6874 55.0368L43.4549 55.0587L43.4198 54.8065L44.2161 54.6924L44.2511 54.9359L44.0801 54.9666L44.1744 55.6246L44.6701 54.892L44.488 54.9096L44.453 54.6661L45.2492 54.552L45.2843 54.8043L45.1264 54.835L44.6087 55.5874L45.3611 56.2454L45.5256 56.2278L45.5607 56.4801L44.7337 56.5964L44.6986 56.3551L44.8807 56.3222L44.2007 55.7102L44.3016 56.4143L44.4727 56.3946L44.5078 56.6381L43.7116 56.7521L43.6699 56.4955Z" fill="#2D2A26"/>
<path d="M47.2239 55.5327L47.1866 55.3726L46.7633 55.434L46.8444 56.0131L47.4038 55.9341L47.384 55.6972L47.6538 55.6577L47.7284 56.1732L46.2566 56.3925L46.2215 56.1403L46.4408 56.0964L46.239 54.6794L46.0065 54.7014L45.9714 54.4491L47.4433 54.2298L47.5135 54.7277L47.2436 54.7672L47.1976 54.5478L46.6382 54.6268L46.715 55.1686L47.1383 55.1072V54.947L47.3819 54.912L47.463 55.491L47.2239 55.5327Z" fill="#2D2A26"/>
<path d="M48.5173 56.0614L48.4822 55.8091L48.7015 55.7653L48.4997 54.3504L48.2672 54.3724L48.2321 54.1201L48.9845 54.0126L49.693 54.9515C49.8159 55.1168 49.9294 55.2889 50.033 55.4669C49.9848 55.2783 49.9409 55.0721 49.9167 54.9186L49.8092 54.1552L49.5899 54.1772L49.5548 53.9293L50.3247 53.8196L50.3598 54.0719L50.1536 54.1092L50.3927 55.7894L49.8772 55.864L49.1665 54.9251C49.0437 54.7598 48.9302 54.5877 48.8265 54.4097H48.8156C48.8638 54.5983 48.9099 54.8045 48.9318 54.958L49.0393 55.7192L49.2586 55.6973L49.2938 55.9451L48.5173 56.0614Z" fill="#2D2A26"/>
<path d="M46.1208 44.6704C46.1937 44.6568 46.2686 44.6586 46.3407 44.6756C46.4128 44.6926 46.4807 44.7244 46.5398 44.7691C46.7789 44.9511 46.9324 45.3613 47.0377 46.1027L49.308 45.5434C49.2621 44.5933 48.8436 43.6996 48.1432 43.0559C47.8392 42.8522 47.4969 42.7124 47.1372 42.6449C46.7775 42.5774 46.4079 42.5836 46.0506 42.6633C45.1885 42.7467 44.3888 43.1497 43.8089 43.793C43.5479 44.1316 43.362 44.5219 43.2637 44.9379C43.1654 45.354 43.1568 45.7862 43.2386 46.2058C43.5193 48.1514 44.8749 48.6779 46.0726 49.1407H46.0857C46.9631 49.4697 47.7396 49.7549 47.8581 50.5709C47.9005 50.7647 47.8821 50.9669 47.8054 51.15C47.7662 51.2214 47.7097 51.2819 47.6411 51.3259C47.5726 51.37 47.4941 51.3962 47.4128 51.4022C46.7876 51.4922 46.463 51.071 46.27 49.9019L43.9229 50.5051C43.9032 50.5102 43.8822 50.5079 43.864 50.4986C43.8458 50.4893 43.8316 50.4737 43.8242 50.4546L41.2973 43.7469L38.165 44.1987L37.6276 53.0605C37.6263 53.0784 37.6194 53.0954 37.6077 53.109C37.596 53.1226 37.5803 53.132 37.5628 53.1359C37.5453 53.1399 37.527 53.1381 37.5106 53.1308C37.4943 53.1235 37.4807 53.1112 37.4719 53.0956L35.6337 49.6057C35.627 49.5873 35.627 49.5671 35.6337 49.5487L36.9827 43.102L34.3132 43.4771L33.6683 47.9628C33.6657 47.9805 33.6575 47.9968 33.6448 48.0095C33.6322 48.0221 33.6158 48.0304 33.5982 48.033H33.5258C33.5079 48.0355 33.4897 48.0322 33.4738 48.0235C33.458 48.0148 33.4455 48.0012 33.438 47.9848L32.0737 45.0411L18.5749 46.9494L18.8732 49.0223L20.5819 48.7788C20.6032 48.7757 20.6248 48.781 20.642 48.7938C20.6593 48.8065 20.6708 48.8256 20.6741 48.8468L21.8147 56.9627L24.1617 56.6337L23.0211 48.5178C23.018 48.4961 23.0235 48.474 23.0365 48.4563C23.0428 48.4473 23.051 48.4398 23.0604 48.4341C23.0698 48.4284 23.0804 48.4248 23.0913 48.4234L24.5566 48.2172C24.5672 48.2157 24.5781 48.2163 24.5885 48.219C24.599 48.2217 24.6088 48.2265 24.6174 48.233C24.6259 48.2396 24.6331 48.2477 24.6385 48.2571C24.6439 48.2664 24.6473 48.2768 24.6487 48.2875L25.7893 56.4034L30.7159 55.7102H30.7269C30.7392 55.7099 30.7514 55.7125 30.7626 55.7176C30.7738 55.7227 30.7837 55.7303 30.7915 55.7398C30.7993 55.7494 30.8048 55.7605 30.8077 55.7725C30.8106 55.7845 30.8107 55.7969 30.808 55.809L30.3123 58.3819L33.2538 57.9893L33.9447 51.8256C33.9472 51.8076 33.9554 51.7909 33.968 51.7779C33.9806 51.7649 33.9971 51.7562 34.0149 51.7532H34.0719C34.0898 51.7506 34.108 51.754 34.1239 51.7627C34.1397 51.7714 34.1523 51.785 34.1597 51.8014L35.5833 55.039L39.9703 54.4205L40.0054 52.3213C40.0061 52.302 40.0135 52.2837 40.0263 52.2693C40.0391 52.2549 40.0565 52.2453 40.0756 52.2423L41.7733 51.9988C41.7927 51.9959 41.8124 52.0001 41.8289 52.0105C41.8455 52.021 41.8576 52.0371 41.8632 52.0559L42.4906 54.0695L45.0307 53.7098L44.7016 52.7863C44.6972 52.7712 44.6971 52.7552 44.7013 52.7401C44.7056 52.7249 44.7141 52.7113 44.7258 52.7008C44.7403 52.6888 44.7585 52.6823 44.7773 52.6823C44.7961 52.6823 44.8143 52.6888 44.8289 52.7008C45.1962 53.0189 45.6349 53.2434 46.1078 53.3553C46.5806 53.4672 47.0735 53.4632 47.5444 53.3435C47.971 53.32 48.387 53.2016 48.762 52.9968C49.137 52.792 49.4615 52.5061 49.7119 52.1599C49.9622 51.8137 50.1321 51.4159 50.2091 50.9957C50.2861 50.5754 50.2682 50.1432 50.1569 49.7308C49.8849 47.84 48.4021 47.2499 47.2285 46.7739L47.0684 46.7103C46.2722 46.3681 45.7523 46.0896 45.6404 45.3745C45.6114 45.2198 45.6354 45.0598 45.7084 44.9204C45.7532 44.8497 45.8137 44.7904 45.8853 44.747C45.9568 44.7036 46.0374 44.6774 46.1208 44.6704ZM32.0166 50.1717L31.3213 53.418C31.3176 53.4342 31.3091 53.4489 31.297 53.4602C31.2849 53.4716 31.2697 53.479 31.2533 53.4817L27.8973 53.9511H27.8863C27.868 53.9506 27.8504 53.9444 27.8358 53.9335C27.8269 53.9271 27.8194 53.9189 27.8137 53.9095C27.8081 53.9 27.8044 53.8896 27.8029 53.8787L27.5287 51.9177C27.5269 51.9069 27.5274 51.8959 27.53 51.8854C27.5326 51.8748 27.5374 51.8649 27.5441 51.8563C27.5505 51.8474 27.5587 51.8398 27.5681 51.8342C27.5776 51.8285 27.588 51.8249 27.5989 51.8234L29.9547 51.4834L29.6652 49.4653L27.316 49.8032C27.3052 49.805 27.2942 49.8046 27.2837 49.8019C27.2731 49.7993 27.2632 49.7944 27.2546 49.7878C27.2456 49.7814 27.2381 49.7732 27.2325 49.7638C27.2268 49.7543 27.2231 49.7439 27.2217 49.733L26.9738 47.9782C26.972 47.9674 26.9724 47.9564 26.975 47.9459C26.9777 47.9353 26.9825 47.9254 26.9891 47.9167C26.9956 47.9078 27.0038 47.9003 27.0132 47.8947C27.0226 47.889 27.0331 47.8853 27.044 47.8838L30.4154 47.41C30.4319 47.4076 30.4487 47.4103 30.4636 47.4177C30.4786 47.4252 30.4908 47.437 30.4987 47.4517L32.0079 50.1124C32.0171 50.1308 32.0216 50.1518 32.0166 50.1717ZM41.1811 50.0269C41.1747 50.0368 41.1664 50.0452 41.1565 50.0516C41.1467 50.0581 41.1356 50.0623 41.124 50.0642L40.1128 50.2089H40.1019C40.0825 50.2088 40.0639 50.2018 40.0492 50.1892C40.0404 50.1815 40.0334 50.1721 40.0284 50.1615C40.0235 50.1509 40.0209 50.1394 40.0207 50.1278L39.9944 46.6182C39.9947 46.5986 40.0019 46.5797 40.0147 46.5648C40.0275 46.55 40.0452 46.5401 40.0646 46.537L40.1501 46.5261C40.17 46.5231 40.1903 46.5275 40.2073 46.5384C40.2242 46.5493 40.2366 46.566 40.2423 46.5853L41.1964 49.972C41.1974 49.9915 41.192 50.0108 41.1811 50.0269Z" fill="#2D2A26"/>
<path d="M49.2457 42.7645L49.0878 42.7864L49.1755 43.394L49.0286 43.4159L48.9408 42.8083L48.7829 42.8303L48.7654 42.7096L49.2303 42.6416L49.2457 42.7645Z" fill="#2D2A26"/>
<path d="M49.5115 42.602L49.6891 43.1L49.7199 42.5713L49.9392 42.5406L50.0445 43.2689L49.9106 43.2886L49.8251 42.7095L49.779 43.3084L49.665 43.3259L49.4457 42.7644L49.5312 43.3434L49.3974 43.3632L49.2921 42.6349L49.5115 42.602Z" fill="#2D2A26"/>
<path d="M33.9457 39.0617L30.1773 42.7643L32.1997 42.4704L33.1429 44.2844L33.9457 39.0617Z" fill="#F6B318"/>
<path d="M32.2923 40.3689L30.6823 39.5464L31.5092 41.1388L32.2923 40.3689Z" fill="#F6B318"/>
<path d="M33.8544 41.1698L33.6877 42.2665L35.471 42.0077L33.8544 41.1698Z" fill="#F6B318"/>
</svg>
