<svg width="24" height="26" viewBox="0 0 24 26" fill="none" xmlns="http://www.w3.org/2000/svg">
<path d="M12 2C8.1402 2 5 4.9159 5 8.5C5 12.0841 8.1402 15 12 15C15.8598 15 19 12.0841 19 8.5C19 4.9159 15.8598 2 12 2Z" fill="#2D2A26"/>
<path d="M20.9582 18.745C18.987 16.9749 16.3738 16 13.6 16H10.4C7.62624 16 5.01301 16.9749 3.04181 18.745C1.08027 20.5066 0 22.8317 0 25.2925C0 25.6832 0.358187 26 0.8 26H23.2C23.6418 26 24 25.6832 24 25.2925C24 22.8317 22.9197 20.5066 20.9582 18.745Z" fill="#2D2A26"/>
</svg>
