<svg width="82" height="82" viewBox="0 0 82 82" fill="none" xmlns="http://www.w3.org/2000/svg">
<circle cx="41" cy="41" r="41" fill="#F6B318" fill-opacity="0.07"/>
<g clip-path="url(#clip0_1_2748)">
<path d="M30.3687 36.6164C30.1 36.6164 29.8649 36.482 29.7641 36.2469L18.4778 13.3048C18.2763 12.8681 18.5786 12.3307 19.0824 12.3307H33.6269C33.8957 12.3307 34.1308 12.4986 34.2316 12.7338L41.6214 28.2188C41.7893 28.5883 41.5878 29.025 41.1847 29.1593L37.8929 35.8438L30.9733 36.1797C30.8726 36.4484 30.6374 36.6164 30.3687 36.6164Z" fill="#F6B318" fill-opacity="0.2"/>
<path d="M20.5268 17.4364L19.855 16.0928H35.8439L36.4821 17.4364H20.5268Z" fill="#757575"/>
<path d="M51.6313 36.65C51.2954 36.65 50.9931 36.3476 50.9595 36.0117L39.5388 33.0558C39.0686 33.6604 38.0945 33.0558 38.4304 32.3504L47.7684 12.7674C47.8692 12.5322 48.1043 12.3643 48.373 12.3643H62.9176C63.3878 12.3643 63.7237 12.9017 63.4886 13.3384L52.2359 36.2805C52.1351 36.5156 51.9 36.65 51.6313 36.65Z" fill="#F6B318" fill-opacity="0.2"/>
<path d="M45.5179 17.4364L46.1561 16.0928H62.145L61.4732 17.4364H45.5179Z" fill="#757575"/>
<path d="M40.9832 69.669C30.5366 69.669 22.0383 61.1707 22.0383 50.7578C22.0383 40.3113 30.5366 31.813 40.9832 31.813C51.3961 31.813 59.8944 40.3113 59.8944 50.7578C59.8944 61.1707 51.3961 69.669 40.9832 69.669Z" fill="#D9D9D9"/>
<path d="M40.5129 31.8466H41.4198V36.3812C41.4198 36.9858 40.5129 36.9858 40.5129 36.3812V31.8466ZM54.0161 37.053C54.2513 37.2546 54.4528 37.4897 54.6543 37.6912L51.4297 40.9159C51.0266 41.319 50.3884 40.7144 50.7915 40.2777L54.0161 37.053ZM59.8944 50.3211V51.1945H55.3261C54.7551 51.1945 54.7551 50.3211 55.3261 50.3211H59.8944ZM54.6543 63.7908C54.4528 64.0259 54.2513 64.2274 54.0161 64.429L50.8251 61.2043C50.3884 60.8012 51.0266 60.163 51.4297 60.5997L54.6543 63.7908ZM40.9832 69.669H40.5129V65.1008C40.5129 64.5298 41.4198 64.5298 41.4198 65.1008V69.669H40.9832ZM27.9166 64.429C27.7151 64.2274 27.4799 64.0259 27.2784 63.7908L30.503 60.5997C30.9061 60.1966 31.5443 60.8012 31.1413 61.2043L27.9166 64.429ZM22.0383 51.1945V50.3211H26.6066C27.2112 50.3211 27.2112 51.1945 26.6066 51.1945H22.0383ZM27.2784 37.6912L27.9166 37.053L31.1413 40.2777C31.5443 40.7144 30.9061 41.319 30.503 40.9159L27.2784 37.6912Z" fill="#F5F4F4"/>
<path d="M40.9832 65.5375C32.8208 65.5375 26.1699 58.9202 26.1699 50.7578C26.1699 42.5954 32.8208 35.9445 40.9832 35.9445C49.1456 35.9445 55.7628 42.5954 55.7628 50.7578C55.7628 58.9202 49.1456 65.5375 40.9832 65.5375Z" fill="#FBFBFB"/>
<path d="M46.6599 59.9279C46.3912 59.9279 41.6214 57.2407 40.9832 56.8712L35.508 59.8943C35.1721 60.0623 34.769 59.7935 34.8362 59.424L36.0118 53.2771L31.4772 49.0111C31.2084 48.7424 31.3428 48.3057 31.7123 48.2385L37.9265 47.466L40.5801 41.8228C40.7144 41.4869 41.2183 41.4869 41.3862 41.8228L44.0399 47.466L50.2204 48.2385C50.5899 48.3057 50.7243 48.7424 50.4892 49.0111L45.9209 53.2771L47.0966 59.424C47.1301 59.6928 46.9286 59.9279 46.6599 59.9279Z" fill="#F6B318"/>
</g>
<defs>
<clipPath id="clip0_1_2748">
<rect width="57.3383" height="57.3383" fill="white" transform="translate(12.3308 12.3307)"/>
</clipPath>
</defs>
</svg>
